<svg width="187" height="110" viewBox="0 0 187 110" fill="none" xmlns="http://www.w3.org/2000/svg">
<path d="M88.618 53.764C88.618 71.7433 83.5023 85.3023 73.271 94.441C63.139 103.48 48.8847 108 30.508 108H0.410001V1.61399H33.786C44.9113 1.61399 54.5467 3.60066 62.692 7.574C70.9367 11.5473 77.294 17.408 81.764 25.156C86.3333 32.8047 88.618 42.3407 88.618 53.764ZM65.225 54.36C65.225 42.5393 62.6423 33.8973 57.477 28.434C52.3117 22.8713 44.812 20.09 34.978 20.09H22.909V89.375H32.594C54.348 89.375 65.225 77.7033 65.225 54.36ZM155.852 18.898C147.21 18.898 140.604 22.1263 136.035 28.583C131.466 35.0397 129.181 43.8803 129.181 55.105C129.181 66.429 131.267 75.22 135.439 81.478C139.71 87.6367 146.515 90.716 155.852 90.716C160.223 90.716 164.544 90.2193 168.815 89.226C173.186 88.2327 177.904 86.842 182.97 85.054V103.977C178.301 105.864 173.682 107.255 169.113 108.149C164.544 109.043 159.428 109.49 153.766 109.49C142.839 109.49 133.8 107.255 126.648 102.785C119.595 98.2157 114.38 91.8583 111.003 83.713C107.626 75.4683 105.937 65.8827 105.937 54.956C105.937 44.228 107.874 34.7417 111.748 26.497C115.622 18.2523 121.234 11.7957 128.585 7.12699C136.035 2.45833 145.124 0.123995 155.852 0.123995C161.117 0.123995 166.381 0.819328 171.646 2.20999C177.01 3.50133 182.126 5.28933 186.993 7.574L179.692 25.901C175.719 24.0137 171.696 22.3747 167.623 20.984C163.65 19.5933 159.726 18.898 155.852 18.898Z" fill="white"/>
</svg>
