<svg width="664" height="78" viewBox="0 0 664 78" fill="none" xmlns="http://www.w3.org/2000/svg">
<path d="M46.514 30.972C46.514 40.2633 43.8703 47.2703 38.583 51.993C33.347 56.6643 25.9807 59 16.484 59H0.93V4.022H18.178C23.9273 4.022 28.9067 5.04866 33.116 7.102C37.3767 9.15533 40.662 12.184 42.972 16.188C45.3333 20.1407 46.514 25.0687 46.514 30.972ZM34.425 31.28C34.425 25.1713 33.0903 20.7053 30.421 17.882C27.7517 15.0073 23.876 13.57 18.794 13.57H12.557V49.375H17.562C28.804 49.375 34.425 43.3433 34.425 31.28ZM74.329 16.188C80.1297 16.188 84.724 17.8563 88.112 21.193C91.5 24.4783 93.194 29.1753 93.194 35.284V40.828H66.09C66.1927 44.062 67.1424 46.603 68.939 48.451C70.787 50.299 73.328 51.223 76.562 51.223C79.2827 51.223 81.7467 50.9663 83.954 50.453C86.1614 49.8883 88.4457 49.0413 90.807 47.912V56.767C88.7537 57.7937 86.572 58.538 84.262 59C82.0034 59.5133 79.257 59.77 76.023 59.77C71.8137 59.77 68.092 59 64.858 57.46C61.624 55.8687 59.083 53.4817 57.235 50.299C55.387 47.1163 54.463 43.1123 54.463 38.287C54.463 33.359 55.2844 29.278 56.927 26.044C58.621 22.7587 60.9567 20.2947 63.934 18.652C66.9114 17.0093 70.3764 16.188 74.329 16.188ZM74.406 24.35C72.1987 24.35 70.3507 25.0687 68.862 26.506C67.4247 27.9433 66.5777 30.1763 66.321 33.205H82.414C82.3627 30.6383 81.6954 28.5337 80.412 26.891C79.1287 25.197 77.1267 24.35 74.406 24.35ZM113.97 59H102.497V0.479996H113.97V59ZM131.733 0.479996C133.427 0.479996 134.89 0.890664 136.122 1.712C137.354 2.482 137.97 3.945 137.97 6.101C137.97 8.20566 137.354 9.66866 136.122 10.49C134.89 11.3113 133.427 11.722 131.733 11.722C129.988 11.722 128.499 11.3113 127.267 10.49C126.086 9.66866 125.496 8.20566 125.496 6.101C125.496 3.945 126.086 2.482 127.267 1.712C128.499 0.890664 129.988 0.479996 131.733 0.479996ZM137.431 16.958V59H125.958V16.958H137.431ZM159.429 59L143.413 16.958H155.425L163.51 40.905C163.972 42.3423 164.331 43.831 164.588 45.371C164.896 46.911 165.076 48.297 165.127 49.529H165.435C165.589 46.757 166.154 43.8823 167.129 40.905L175.214 16.958H187.226L171.21 59H159.429ZM210.583 16.188C216.384 16.188 220.978 17.8563 224.366 21.193C227.754 24.4783 229.448 29.1753 229.448 35.284V40.828H202.344C202.447 44.062 203.396 46.603 205.193 48.451C207.041 50.299 209.582 51.223 212.816 51.223C215.537 51.223 218.001 50.9663 220.208 50.453C222.415 49.8883 224.7 49.0413 227.061 47.912V56.767C225.008 57.7937 222.826 58.538 220.516 59C218.257 59.5133 215.511 59.77 212.277 59.77C208.068 59.77 204.346 59 201.112 57.46C197.878 55.8687 195.337 53.4817 193.489 50.299C191.641 47.1163 190.717 43.1123 190.717 38.287C190.717 33.359 191.538 29.278 193.181 26.044C194.875 22.7587 197.211 20.2947 200.188 18.652C203.165 17.0093 206.63 16.188 210.583 16.188ZM210.66 24.35C208.453 24.35 206.605 25.0687 205.116 26.506C203.679 27.9433 202.832 30.1763 202.575 33.205H218.668C218.617 30.6383 217.949 28.5337 216.666 26.891C215.383 25.197 213.381 24.35 210.66 24.35ZM262.236 16.188C262.801 16.188 263.468 16.2137 264.238 16.265C265.008 16.3163 265.624 16.3933 266.086 16.496L265.239 27.276C264.88 27.1733 264.341 27.0963 263.622 27.045C262.955 26.9423 262.364 26.891 261.851 26.891C259.9 26.891 258.027 27.2503 256.23 27.969C254.433 28.6363 252.97 29.74 251.841 31.28C250.763 32.82 250.224 34.9247 250.224 37.594V59H238.751V16.958H247.452L249.146 24.042H249.685C250.917 21.886 252.611 20.038 254.767 18.498C256.923 16.958 259.413 16.188 262.236 16.188ZM267.711 16.958H280.262L288.193 40.597C288.604 41.7263 288.912 42.907 289.117 44.139C289.322 45.3197 289.476 46.5773 289.579 47.912H289.81C289.964 46.5773 290.169 45.3197 290.426 44.139C290.734 42.907 291.068 41.7263 291.427 40.597L299.204 16.958H311.524L293.737 64.39C292.146 68.7533 289.81 72.013 286.73 74.169C283.701 76.3763 280.185 77.48 276.181 77.48C274.898 77.48 273.768 77.403 272.793 77.249C271.869 77.1463 271.048 77.018 270.329 76.864V67.778C270.894 67.8807 271.561 67.9833 272.331 68.086C273.152 68.1887 273.999 68.24 274.872 68.24C277.285 68.24 279.184 67.4957 280.57 66.007C282.007 64.5697 283.06 62.8243 283.727 60.771L284.42 58.692L267.711 16.958ZM380.311 12.954C375.845 12.954 372.431 14.6223 370.07 17.959C367.708 21.2957 366.528 25.8643 366.528 31.665C366.528 37.517 367.606 42.06 369.762 45.294C371.969 48.4767 375.485 50.068 380.311 50.068C382.569 50.068 384.802 49.8113 387.01 49.298C389.268 48.7847 391.707 48.066 394.325 47.142V56.921C391.912 57.8963 389.525 58.615 387.164 59.077C384.802 59.539 382.159 59.77 379.233 59.77C373.586 59.77 368.915 58.615 365.219 56.305C361.574 53.9437 358.879 50.6583 357.134 46.449C355.388 42.1883 354.516 37.2347 354.516 31.588C354.516 26.044 355.517 21.1417 357.519 16.881C359.521 12.6203 362.421 9.28366 366.22 6.871C370.07 4.45833 374.767 3.252 380.311 3.252C383.031 3.252 385.752 3.61133 388.473 4.33C391.245 4.99733 393.888 5.92133 396.404 7.102L392.631 16.573C390.577 15.5977 388.498 14.7507 386.394 14.032C384.34 13.3133 382.313 12.954 380.311 12.954ZM443.275 37.902C443.275 44.8833 441.427 50.2733 437.731 54.072C434.086 57.8707 429.107 59.77 422.793 59.77C418.892 59.77 415.401 58.923 412.321 57.229C409.292 55.535 406.905 53.071 405.16 49.837C403.415 46.5517 402.542 42.5733 402.542 37.902C402.542 30.9207 404.364 25.5563 408.009 21.809C411.654 18.0617 416.659 16.188 423.024 16.188C426.977 16.188 430.467 17.035 433.496 18.729C436.525 20.423 438.912 22.887 440.657 26.121C442.402 29.3037 443.275 33.2307 443.275 37.902ZM414.246 37.902C414.246 42.06 414.913 45.217 416.248 47.373C417.634 49.4777 419.867 50.53 422.947 50.53C425.976 50.53 428.157 49.4777 429.492 47.373C430.878 45.217 431.571 42.06 431.571 37.902C431.571 33.744 430.878 30.6383 429.492 28.585C428.157 26.4803 425.95 25.428 422.87 25.428C419.841 25.428 417.634 26.4803 416.248 28.585C414.913 30.6383 414.246 33.744 414.246 37.902ZM476.627 16.188C481.144 16.188 484.763 17.42 487.484 19.884C490.205 22.2967 491.565 26.198 491.565 31.588V59H480.092V34.437C480.092 31.4083 479.553 29.1497 478.475 27.661C477.397 26.121 475.677 25.351 473.316 25.351C469.825 25.351 467.438 26.5573 466.155 28.97C464.872 31.3313 464.23 34.745 464.23 39.211V59H452.757V16.958H461.535L463.075 22.348H463.691C465.026 20.192 466.848 18.6263 469.158 17.651C471.519 16.6757 474.009 16.188 476.627 16.188ZM527.233 16.188C531.751 16.188 535.37 17.42 538.09 19.884C540.811 22.2967 542.171 26.198 542.171 31.588V59H530.698V34.437C530.698 31.4083 530.159 29.1497 529.081 27.661C528.003 26.121 526.284 25.351 523.922 25.351C520.432 25.351 518.045 26.5573 516.761 28.97C515.478 31.3313 514.836 34.745 514.836 39.211V59H503.363V16.958H512.141L513.681 22.348H514.297C515.632 20.192 517.454 18.6263 519.764 17.651C522.126 16.6757 524.615 16.188 527.233 16.188ZM571.295 16.188C577.096 16.188 581.69 17.8563 585.078 21.193C588.466 24.4783 590.16 29.1753 590.16 35.284V40.828H563.056C563.159 44.062 564.108 46.603 565.905 48.451C567.753 50.299 570.294 51.223 573.528 51.223C576.249 51.223 578.713 50.9663 580.92 50.453C583.127 49.8883 585.412 49.0413 587.773 47.912V56.767C585.72 57.7937 583.538 58.538 581.228 59C578.969 59.5133 576.223 59.77 572.989 59.77C568.78 59.77 565.058 59 561.824 57.46C558.59 55.8687 556.049 53.4817 554.201 50.299C552.353 47.1163 551.429 43.1123 551.429 38.287C551.429 33.359 552.25 29.278 553.893 26.044C555.587 22.7587 557.923 20.2947 560.9 18.652C563.877 17.0093 567.342 16.188 571.295 16.188ZM571.372 24.35C569.165 24.35 567.317 25.0687 565.828 26.506C564.391 27.9433 563.544 30.1763 563.287 33.205H579.38C579.329 30.6383 578.661 28.5337 577.378 26.891C576.095 25.197 574.093 24.35 571.372 24.35ZM616.557 59.77C610.294 59.77 605.443 58.0503 602.004 54.611C598.616 51.1203 596.922 45.6533 596.922 38.21C596.922 33.0767 597.795 28.893 599.54 25.659C601.285 22.425 603.698 20.038 606.778 18.498C609.909 16.958 613.503 16.188 617.558 16.188C620.433 16.188 622.922 16.4703 625.027 17.035C627.183 17.5997 629.057 18.267 630.648 19.037L627.26 27.892C625.463 27.1733 623.769 26.583 622.178 26.121C620.638 25.659 619.098 25.428 617.558 25.428C611.603 25.428 608.626 29.663 608.626 38.133C608.626 42.3423 609.396 45.448 610.936 47.45C612.527 49.452 614.735 50.453 617.558 50.453C619.971 50.453 622.101 50.145 623.949 49.529C625.797 48.8617 627.594 47.9633 629.339 46.834V56.613C627.594 57.7423 625.746 58.538 623.795 59C621.896 59.5133 619.483 59.77 616.557 59.77ZM656.726 50.607C658.009 50.607 659.241 50.4787 660.422 50.222C661.602 49.9653 662.783 49.6573 663.964 49.298V57.845C662.732 58.3583 661.192 58.7947 659.344 59.154C657.547 59.5647 655.571 59.77 653.415 59.77C650.899 59.77 648.641 59.3593 646.639 58.538C644.688 57.7167 643.122 56.305 641.942 54.303C640.812 52.2497 640.248 49.4263 640.248 45.833V25.582H634.781V20.731L641.095 16.881L644.406 8.026H651.721V16.958H663.502V25.582H651.721V45.833C651.721 47.4243 652.183 48.6307 653.107 49.452C654.031 50.222 655.237 50.607 656.726 50.607Z" fill="white"/>
</svg>
